<svg width="141" height="32" viewBox="0 0 141 32" fill="none" xmlns="http://www.w3.org/2000/svg">
<g clip-path="url(#clip0_84_299)">
<path fill-rule="evenodd" clip-rule="evenodd" d="M1.68064 3.70953C0 6.04315 0 9.3621 0 16C0 22.6379 0 25.9569 1.68064 28.2904C2.24387 29.0725 2.93024 29.7582 3.71303 30.321C6.04884 32 9.37092 32 16.0151 32C22.6592 32 25.9813 32 28.317 30.321C29.0999 29.7582 29.7862 29.0725 30.3496 28.2904C32.0302 25.9569 32.0302 22.6379 32.0302 16C32.0302 9.3621 32.0302 6.04315 30.3496 3.70953C29.7862 2.92748 29.0999 2.24175 28.317 1.67905C25.9813 0 22.6592 0 16.0151 0C9.37092 0 6.04884 0 3.71303 1.67905C2.93024 2.24175 2.24387 2.92748 1.68064 3.70953ZM22.564 11.6283C23.4294 12.9223 23.8914 14.4437 23.8914 16H16.0151V23.8689C14.4573 23.8689 12.9345 23.4073 11.6393 22.5427C10.344 21.6781 9.33448 20.4491 8.73835 19.0113C8.14223 17.5734 7.98625 15.9913 8.29014 14.4649C8.59406 12.9385 9.3442 11.5364 10.4457 10.4359C11.5472 9.3354 12.9507 8.58597 14.4785 8.28233C16.0063 7.97873 17.59 8.13456 19.0292 8.73012C20.4684 9.32569 21.6985 10.3343 22.564 11.6283Z" fill="#CBCBCB"/>
<path d="M45.1631 23.0819C44.194 23.0819 43.2914 22.9072 42.4557 22.5577C41.6319 22.2082 40.9112 21.7201 40.2934 21.0934C39.6757 20.4667 39.1913 19.7316 38.84 18.8879C38.5008 18.0443 38.3312 17.1224 38.3312 16.1221C38.3312 15.1218 38.5008 14.1998 38.84 13.3562C39.1792 12.5005 39.6576 11.7654 40.2753 11.1508C40.8931 10.5241 41.6138 10.042 42.4376 9.70455C43.2733 9.35504 44.1817 9.1803 45.1631 9.1803C46.1442 9.1803 47.0224 9.343 47.7974 9.6684C48.5848 9.99378 49.2511 10.4276 49.7962 10.97C50.3412 11.5123 50.729 12.1149 50.959 12.7777L48.4698 13.9709C48.2398 13.32 47.8339 12.7838 47.2524 12.3619C46.6832 11.9281 45.9867 11.7112 45.1631 11.7112C44.3634 11.7112 43.6611 11.898 43.0554 12.2716C42.4497 12.6452 41.9771 13.1634 41.6382 13.8262C41.311 14.477 41.1475 15.2423 41.1475 16.1221C41.1475 17.0019 41.311 17.7732 41.6382 18.436C41.9771 19.0989 42.4497 19.6171 43.0554 19.9907C43.6611 20.3643 44.3634 20.5511 45.1631 20.5511C45.9867 20.5511 46.6832 20.3402 47.2524 19.9184C47.8339 19.4845 48.2398 18.9422 48.4698 18.2914L50.959 19.4845C50.729 20.1474 50.3412 20.7499 49.7962 21.2923C49.2511 21.8346 48.5848 22.2685 47.7974 22.5938C47.0224 22.9192 46.1442 23.0819 45.1631 23.0819Z" fill="#CBCBCB"/>
<path d="M57.313 23.082C56.3316 23.082 55.4353 22.859 54.6238 22.4131C53.8243 21.9672 53.1824 21.3586 52.6978 20.5873C52.2255 19.8039 51.9892 18.9181 51.9892 17.9299C51.9892 16.9296 52.2255 16.0438 52.6978 15.2725C53.1824 14.5012 53.8243 13.8926 54.6238 13.4467C55.4353 13.0007 56.3316 12.7778 57.313 12.7778C58.2941 12.7778 59.1844 13.0007 59.9839 13.4467C60.7833 13.8926 61.4192 14.5012 61.8917 15.2725C62.3761 16.0438 62.6185 16.9296 62.6185 17.9299C62.6185 18.9181 62.3761 19.8039 61.8917 20.5873C61.4192 21.3586 60.7833 21.9672 59.9839 22.4131C59.1844 22.859 58.2941 23.082 57.313 23.082ZM57.313 20.6415C57.8095 20.6415 58.2395 20.527 58.6029 20.298C58.9783 20.069 59.2692 19.7497 59.475 19.3399C59.6932 18.9302 59.8022 18.4602 59.8022 17.9299C59.8022 17.3996 59.6932 16.9356 59.475 16.5379C59.2692 16.1281 58.9783 15.8088 58.6029 15.5798C58.2395 15.3388 57.8095 15.2182 57.313 15.2182C56.8163 15.2182 56.3802 15.3388 56.0048 15.5798C55.6291 15.8088 55.3324 16.1281 55.1145 16.5379C54.9084 16.9356 54.8055 17.3996 54.8055 17.9299C54.8055 18.4602 54.9084 18.9302 55.1145 19.3399C55.3324 19.7497 55.6291 20.069 56.0048 20.298C56.3802 20.527 56.8163 20.6415 57.313 20.6415Z" fill="#CBCBCB"/>
<path d="M64.2239 22.8651V12.9947H66.7677V14.9471L66.6225 14.5132C66.8525 13.9227 67.2219 13.4888 67.7307 13.2116C68.2516 12.9224 68.8573 12.7778 69.5477 12.7778C70.2986 12.7778 70.9529 12.9344 71.51 13.2478C72.0794 13.5611 72.5216 14.001 72.8363 14.5675C73.1514 15.1218 73.3087 15.7726 73.3087 16.5198V22.8651H70.5835V17.0983C70.5835 16.7126 70.5047 16.3812 70.3472 16.104C70.2017 15.8268 69.9899 15.6099 69.7113 15.4533C69.4448 15.2966 69.1298 15.2182 68.7664 15.2182C68.4151 15.2182 68.1001 15.2966 67.8215 15.4533C67.543 15.6099 67.3251 15.8268 67.1675 16.104C67.0221 16.3812 66.9494 16.7126 66.9494 17.0983V22.8651H64.2239Z" fill="#CBCBCB"/>
<path d="M78.0305 22.865L74.1241 12.9947H77.0675L79.7748 20.4607H78.6482L81.3556 12.9947H84.2989L80.3926 22.865H78.0305Z" fill="#CBCBCB"/>
<path d="M90.0998 23.082C89.046 23.082 88.1315 22.853 87.3563 22.395C86.581 21.925 85.9816 21.2983 85.5576 20.515C85.1336 19.7316 84.9214 18.8639 84.9214 17.9118C84.9214 16.9236 85.1396 16.0438 85.5757 15.2725C86.0239 14.5012 86.6235 13.8926 87.3744 13.4467C88.1255 13.0007 88.9735 12.7778 89.9181 12.7778C90.7055 12.7778 91.402 12.9043 92.0077 13.1574C92.6134 13.3984 93.1222 13.7419 93.5339 14.1878C93.9579 14.6337 94.279 15.152 94.4969 15.7425C94.7151 16.321 94.824 16.9537 94.824 17.6406C94.824 17.8335 94.8119 18.0263 94.7878 18.2191C94.7754 18.3999 94.7453 18.5566 94.6967 18.6891H87.2654V16.7006H93.1524L91.8623 17.6406C91.9836 17.1224 91.9775 16.6645 91.8442 16.2667C91.711 15.857 91.4748 15.5376 91.1356 15.3086C90.8084 15.0676 90.4028 14.9471 89.9181 14.9471C89.4458 14.9471 89.0399 15.0616 88.7007 15.2906C88.3618 15.5195 88.1074 15.857 87.9378 16.3029C87.7682 16.7488 87.7015 17.2911 87.7377 17.9299C87.6894 18.4843 87.7561 18.9723 87.9378 19.3942C88.1195 19.816 88.398 20.1474 88.7735 20.3884C89.1492 20.6174 89.6034 20.7319 90.1363 20.7319C90.6207 20.7319 91.0326 20.6355 91.3718 20.4427C91.7231 20.2498 91.9956 19.9847 92.1894 19.6473L94.3698 20.6777C94.1761 21.1597 93.867 21.5815 93.443 21.9431C93.0314 22.3046 92.5407 22.5879 91.9715 22.7927C91.402 22.9856 90.7782 23.082 90.0998 23.082Z" fill="#CBCBCB"/>
<path d="M96.4289 22.8651V12.9947H98.9727V15.3629L98.791 15.0194C99.0089 14.1878 99.3662 13.6274 99.863 13.3382C100.372 13.0369 100.971 12.8862 101.662 12.8862H102.243V15.2363H101.389C100.723 15.2363 100.184 15.4412 99.7721 15.851C99.3602 16.2487 99.1544 16.8151 99.1544 17.5503V22.8651H96.4289Z" fill="#CBCBCB"/>
<path d="M108.571 22.9735C107.372 22.9735 106.439 22.6541 105.773 22.0154C105.119 21.3646 104.792 20.4607 104.792 19.3037V15.3447H103.12V12.9947H103.211C103.72 12.9947 104.108 12.8681 104.374 12.615C104.653 12.3619 104.792 11.9823 104.792 11.4761V10.7531H107.517V12.9947H109.843V15.3447H107.517V19.123C107.517 19.4604 107.578 19.7436 107.699 19.9726C107.82 20.1895 108.008 20.3522 108.262 20.4607C108.517 20.5692 108.832 20.6234 109.207 20.6234C109.292 20.6234 109.389 20.6174 109.498 20.6053C109.607 20.5933 109.722 20.5812 109.843 20.5692V22.865C109.661 22.8891 109.455 22.9132 109.225 22.9373C108.995 22.9614 108.777 22.9735 108.571 22.9735Z" fill="#CBCBCB"/>
<path d="M111.64 22.865V9.39722H114.456V16.1402L113.675 15.869L119.089 9.39722H122.614L117.254 15.8328L117.418 13.8443L122.723 22.865H119.435L116.128 17.1706L114.456 19.1772V22.865H111.64Z" fill="#CBCBCB"/>
<path d="M123.914 22.865V12.9947H126.639V22.865H123.914ZM123.914 12.1088V9.39722H126.639V12.1088H123.914Z" fill="#CBCBCB"/>
<path d="M133.412 22.9735C132.213 22.9735 131.28 22.6541 130.614 22.0154C129.96 21.3646 129.633 20.4607 129.633 19.3037V15.3447H127.962V12.9947H128.052C128.561 12.9947 128.949 12.8681 129.215 12.615C129.494 12.3619 129.633 11.9823 129.633 11.4761V10.7531H132.359V12.9947H134.684V15.3447H132.359V19.123C132.359 19.4604 132.419 19.7436 132.54 19.9726C132.661 20.1895 132.849 20.3522 133.103 20.4607C133.358 20.5692 133.673 20.6234 134.048 20.6234C134.133 20.6234 134.23 20.6174 134.339 20.6053C134.448 20.5933 134.563 20.5812 134.684 20.5692V22.865C134.503 22.8891 134.297 22.9132 134.066 22.9373C133.836 22.9614 133.618 22.9735 133.412 22.9735Z" fill="#CBCBCB"/>
<path d="M136.436 11.9248V9.05878H137.534C137.731 9.05878 137.906 9.0934 138.057 9.16265C138.212 9.23189 138.332 9.3345 138.419 9.47042C138.507 9.60634 138.55 9.77432 138.55 9.97437C138.55 10.1693 138.505 10.336 138.415 10.4745C138.326 10.6104 138.205 10.713 138.053 10.7822L138.708 11.9248H138.038L137.33 10.6591L137.715 10.8861H137.033V11.9248H136.436ZM137.033 10.3668H137.538C137.622 10.3668 137.695 10.3501 137.757 10.3167C137.819 10.2834 137.866 10.2372 137.9 10.1783C137.936 10.1193 137.953 10.0513 137.953 9.97437C137.953 9.89487 137.936 9.82562 137.9 9.76663C137.866 9.70764 137.819 9.66148 137.757 9.62814C137.695 9.5948 137.622 9.57812 137.538 9.57812H137.033V10.3668Z" fill="#CBCBCB"/>
<path fill-rule="evenodd" clip-rule="evenodd" d="M137.572 8.04889C136.222 8.04889 135.127 9.14261 135.127 10.4918C135.127 11.841 136.222 12.9347 137.572 12.9347C138.923 12.9347 140.017 11.841 140.017 10.4918C140.017 9.14261 138.923 8.04889 137.572 8.04889ZM134.626 10.4918C134.626 8.86647 135.945 7.54889 137.572 7.54889C139.199 7.54889 140.518 8.86647 140.518 10.4918C140.518 12.1171 139.199 13.4347 137.572 13.4347C135.945 13.4347 134.626 12.1171 134.626 10.4918Z" fill="#CBCBCB"/>
</g>
<defs>
<clipPath id="clip0_84_299">
<rect width="140.46" height="32" fill="white"/>
</clipPath>
</defs>
</svg>
