<svg width="65" height="48" viewBox="0 0 65 48" fill="none" xmlns="http://www.w3.org/2000/svg">
<g clip-path="url(#clip0_84_321)">
<path d="M0.941193 32C0.941193 14.3269 15.2681 0 32.9412 0C50.6143 0 64.9412 14.3269 64.9412 32V48H0.941193V32Z" fill="#FF804A"/>
<path d="M31.1412 32H34.7412C37.741 32 39.2409 32 40.2923 31.2361C40.6319 30.9893 40.9305 30.6907 41.1773 30.3511C41.9412 29.2997 41.9412 27.7998 41.9412 24.8V23.2C41.9412 20.2002 41.9412 18.7003 41.1773 17.6489C40.9305 17.3093 40.6319 17.0107 40.2923 16.7639C39.2409 16 37.741 16 34.7412 16H31.1412C28.1414 16 26.6415 16 25.5901 16.7639C25.2505 17.0107 24.9519 17.3093 24.7051 17.6489C23.9412 18.7003 23.9412 20.2002 23.9412 23.2V24.8C23.9412 27.7998 23.9412 29.2997 24.7051 30.3511C24.9519 30.6907 25.2505 30.9893 25.5901 31.2361C26.6415 32 28.1414 32 31.1412 32Z" stroke="#111214" stroke-width="1.5"/>
<path d="M26.9412 21L28.3319 22.1589C30.282 23.784 31.2571 24.5966 32.3872 24.7546C32.7547 24.806 33.1277 24.806 33.4952 24.7546C34.6253 24.5966 35.6004 23.784 37.5505 22.1589L38.9412 21" stroke="#111214" stroke-width="1.5" stroke-linecap="round"/>
</g>
<defs>
<clipPath id="clip0_84_321">
<rect width="64" height="48" fill="white" transform="translate(0.941193)"/>
</clipPath>
</defs>
</svg>
