<svg width="116" height="32" viewBox="0 0 116 32" fill="none" xmlns="http://www.w3.org/2000/svg">
<g clip-path="url(#clip0_84_279)">
<path d="M0.32489 16.3054L16.4573 0.32489L21.3942 5.21533L5.26181 21.1959L0.32489 16.3054Z" fill="#CBCBCB"/>
<path d="M0.697174 26.7847L16.8296 10.8041L21.7665 15.6946L5.63409 31.6751L0.697174 26.7847Z" fill="#CBCBCB"/>
<path d="M37.4014 14.9975C38.3573 14.9975 38.8354 14.6711 38.8354 14.0182V11.7097C38.8354 11.0568 38.3573 10.7303 37.4014 10.7303H34.708V14.9975H37.4014ZM31.3503 23.427V8.77161H38.1008C39.2202 8.77161 40.1761 9.00478 40.969 9.47114C41.785 9.93751 42.1931 10.5787 42.1931 11.3949V14.3329C42.1931 15.1491 41.785 15.7903 40.969 16.2567C40.1761 16.723 39.2202 16.9563 38.1008 16.9563H34.708V23.427H31.3503Z" fill="#CBCBCB"/>
<path d="M50.7738 14.9625C51.7299 14.9625 52.2079 14.6361 52.2079 13.9832V11.7097C52.2079 11.0568 51.7299 10.7303 50.7738 10.7303H48.0806V14.9625H50.7738ZM51.5083 16.9212L56.3351 23.427H52.8025L48.0806 17.0612V23.427H44.7229V8.77161H51.4734C52.5926 8.77161 53.5487 9.00478 54.3415 9.47114C55.1576 9.93751 55.5657 10.5787 55.5657 11.3949V14.298C55.5657 15.1141 55.1693 15.7553 54.3765 16.2217C53.5836 16.6881 52.6277 16.9212 51.5083 16.9212Z" fill="#CBCBCB"/>
<path d="M63.9508 21.4683C64.8835 21.4683 65.3499 21.1418 65.3499 20.489V11.7097C65.3499 11.0568 64.8835 10.7303 63.9508 10.7303H62.4117C61.4558 10.7303 60.9777 11.0568 60.9777 11.7097V20.489C60.9777 21.1418 61.4558 21.4683 62.4117 21.4683H63.9508ZM57.6198 11.3949C57.6198 10.6021 58.0163 9.97248 58.809 9.50613C59.6253 9.01645 60.6046 8.77161 61.7472 8.77161H64.6153C66.4107 8.77161 67.67 9.27295 68.3928 10.2756C68.6261 10.6021 68.7425 10.9752 68.7425 11.3949V20.8036C68.7425 21.5965 68.3345 22.2378 67.5184 22.7273C66.7255 23.1939 65.7579 23.427 64.6153 23.427H61.7472C59.9516 23.427 58.6926 22.9257 57.9697 21.923C57.7365 21.5965 57.6198 21.2233 57.6198 20.8036V11.3949Z" fill="#CBCBCB"/>
<path d="M81.4766 23.427H71.4382V8.77161H74.7961V21.4683H81.4766V23.427Z" fill="#CBCBCB"/>
<path d="M84.1396 23.427V8.77161H87.4975V23.427H84.1396Z" fill="#CBCBCB"/>
<path d="M90.1301 23.427V8.77161H93.5927L98.8393 17.7258V8.80658H102.232V23.427H98.6994L93.4878 14.6128V23.427H90.1301Z" fill="#CBCBCB"/>
<path d="M115.116 23.427H105.078V8.77161H115.116V10.7303H108.435V14.6477H113.682V16.6064H108.435V21.4683H115.116V23.427Z" fill="#CBCBCB"/>
</g>
<defs>
<clipPath id="clip0_84_279">
<rect width="115.441" height="32" fill="white"/>
</clipPath>
</defs>
</svg>
